<svg enable-background="new 0 0 51 55" height="328.394789" viewBox="0 0 51 55" width="304.511531" xmlns="http://www.w3.org/2000/svg"><g fill="#1d3278"><path d="m45.946 32.777-2.207 9.496-2.319-9.496h-3.191l-2.358 9.391-2.141-9.391h-3.487l3.859 14.827h3.429l2.264-9.377 2.302 9.377h3.369l.032-.124 3.884-14.703z"/><path d="m13.978 42.252-8.069-9.475h-3.419v14.83h3.331v-9.453l8.045 9.453h3.442v-14.83h-3.33z"/><path d="m2.137 52.156v-.014c0-1.285.983-2.373 2.367-2.373.802 0 1.292.223 1.766.621l-.513.615c-.356-.305-.704-.494-1.287-.494-.845 0-1.488.738-1.488 1.617v.014c0 .943.622 1.641 1.559 1.641.435 0 .826-.141 1.11-.35v-.857h-1.173v-.703h1.955v1.928c-.452.388-1.103.719-1.915.719-1.436 0-2.381-1.026-2.381-2.364"/><path d="m6.919 52.156v-.014c0-1.293.999-2.373 2.405-2.373 1.411 0 2.395 1.07 2.395 2.359v.014c0 1.291-.996 2.377-2.407 2.377-1.41.001-2.393-1.072-2.393-2.363m3.955 0v-.014c0-.893-.651-1.631-1.561-1.631-.911 0-1.545.729-1.545 1.617v.014c0 .893.648 1.635 1.558 1.635.913 0 1.548-.728 1.548-1.621"/><path d="m11.661 49.846h.893l1.384 3.529 1.375-3.529h.874l-1.909 4.625h-.708z"/><path d="m16.729 49.846h3.404v.724h-2.597v1.194h2.303v.72h-2.303v1.233h2.632v.721h-3.439z"/><path d="m20.95 49.846h2.046c.577 0 1.03.176 1.325.459.243.252.379.592.379.99v.014c0 .756-.452 1.209-1.096 1.395l1.241 1.734h-.952l-1.127-1.598h-1.012v1.598h-.804zm1.987 2.279c.577 0 .945-.305.945-.77v-.015c0-.49-.355-.758-.952-.758h-1.174v1.543z"/><path d="m25.412 49.846h.746l2.46 3.174v-3.174h.793v4.592h-.677l-2.531-3.266v3.266h-.791z"/><path d="m30.229 49.846h.859l1.397 2.174 1.397-2.174h.859v4.592h-.805v-3.293l-1.451 2.166h-.025l-1.436-2.153v3.28h-.795z"/><path d="m35.512 49.846h3.401v.724h-2.595v1.194h2.302v.72h-2.302v1.233h2.631v.721h-3.437z"/><path d="m39.741 49.846h.747l2.461 3.174v-3.174h.795v4.592h-.676l-2.532-3.266v3.266h-.795z"/><path d="m45.837 50.596h-1.455v-.746h3.723v.746h-1.455v3.842h-.813z"/><path d="m18.224 45.541 1.96-2.346c1.356 1.117 2.777 1.832 4.498 1.832 1.356 0 2.175-.539 2.175-1.422v-.045c0-.84-.517-1.266-3.036-1.914-3.035-.777-4.993-1.615-4.993-4.605v-.043c0-2.732 2.196-4.539 5.274-4.539 2.194 0 4.068.686 5.596 1.914l-1.722 2.496c-1.338-.928-2.648-1.484-3.918-1.484-1.271 0-1.937.582-1.937 1.309v.045c0 .99.644 1.312 3.25 1.982 3.057.793 4.779 1.893 4.779 4.518v.045c0 2.99-2.28 4.67-5.532 4.67-2.282-.001-4.585-.796-6.394-2.413"/></g><path d="m10.42 4.628c-.311.012-.495.192-.563.557 0 0-.076.539-.159 1.458-.078.841-.174 2.173-.174 3.758 0 3.568.468 8.641 2.688 12.531 1.707 2.964 4.114 4.637 6.802 4.725-1.048-.802-2.294-2.132-2.957-4.197-.624-1.963-.942-4.281-.942-6.891 0-3.605.603-6.694.79-7.559.003-.021.006-.035.008-.043.107-.5.397-.901.784-1.104-2.739-1.759-5.098-2.793-5.552-2.988-.273-.125-.422-.178-.422-.18h-.005l-.003-.002c-.1-.042-.198-.065-.295-.065" fill="#dd0332"/><path d="m33.769 8.798c-.068 0-.146.032-.231.099-.002.001-.085.064-.239.199-.158.124-.381.315-.688.589-.41.366-1.247 1.139-2.222 2.212-1.547 1.72-3.597 4.433-4.569 7.574-.56 1.83-.84 3.418-.831 4.714-.011.969.143 1.792.457 2.443.299.633.753 1.084 1.392 1.379.27.118.608.177 1.013.177h.019c1.874 0 5.003-1.563 6.08-5.042.581-1.874.874-4.085.874-6.574 0-3.089-.446-5.781-.642-6.795-.073-.373-.115-.578-.115-.578-.049-.176-.139-.397-.298-.397" fill="#dd0332"/><path d="m17.275 8.798c-.166 0-.264.219-.318.403-.007.035-.047.234-.115.574-.052.257-.156.811-.268 1.593-.176 1.222-.386 3.113-.386 5.201 0 2.528.299 4.736.885 6.562 1.103 3.486 4.308 5.053 6.231 5.053h.021c.404 0 .761-.062 1.059-.191.158-.063.309-.144.478-.263-.142-.188-.268-.401-.382-.641-.376-.78-.562-1.729-.575-2.9.012-1.446.315-3.14.901-5.031.049-.175.11-.352.17-.521.023-.068.047-.137.072-.205-2.046-5.081-6.744-8.911-7.275-9.333-.167-.137-.254-.201-.254-.203-.094-.064-.177-.098-.244-.098" fill="#dd0332"/><path d="m25.505.481c-.113 0-.23.089-.348.268-.004.003-.098.142-.254.4-.234.393-.46.776-.686 1.171-.508.897-1.276 2.348-2.068 4.152-.543 1.234-1.038 2.515-1.47 3.813 1.522 1.521 3.562 3.894 4.921 6.772 1.048-2.256 2.644-4.503 4.744-6.685-1.433-4.349-3.443-7.895-4.246-9.223-.171-.266-.259-.408-.259-.408-.161-.241-.297-.26-.334-.26" fill="#dd0332"/><path d="m40.566 4.628c-.059 0-.159.014-.283.064l-.003.003h-.003c-.002.001-.151.055-.419.178-.262.106-.606.27-1.048.476l-.154.072c-1.353.656-2.671 1.387-3.916 2.173-.144.081-.283.168-.422.262.383.193.681.601.788 1.104.003.014.006.028.01.051.184.862.779 3.953.779 7.556 0 2.597-.31 4.915-.921 6.891-.653 2.073-1.87 3.398-2.893 4.194 2.646-.127 5.02-1.792 6.704-4.725 2.222-3.887 2.688-8.959 2.688-12.527 0-1.264-.056-2.533-.171-3.77-.085-.908-.16-1.449-.16-1.455-.066-.355-.254-.535-.576-.547" fill="#dd0332"/><path d="m33.22 1.611c-.034 0-.07.003-.105.008h-.005-.003c-.083.009-.166.042-.252.102l-.005.003-.004.002c-.006.005-.587.36-1.484 1.006-.498.355-1.288.945-2.256 1.745.703 1.459 1.332 2.948 1.872 4.431 1.157-.91 2.42-1.776 3.859-2.643-.405-2.061-.874-3.594-1.057-4.165-.008-.02-.012-.033-.015-.044-.111-.294-.294-.445-.545-.445" fill="#dd0332"/><path d="m17.779 1.611c-.25 0-.433.15-.546.446-.004.011-.007.024-.015.044-.183.571-.65 2.104-1.056 4.165 1.438.866 2.703 1.73 3.856 2.641.513-1.439 1.144-2.928 1.874-4.43-.765-.633-1.524-1.22-2.256-1.745-.897-.646-1.48-1.001-1.485-1.006l-.004-.002-.003-.003c-.085-.06-.17-.093-.25-.102h-.006-.003c-.035-.006-.071-.008-.106-.008" fill="#dd0332"/><path d="m4.817 11.256c-.779 0-1.23.023-1.235.023-.307.02-.59.188-.776.464-.11.163-.167.368-.157.569.054.536.411 2.478 2.728 5.402 1.188-.589 2.368-1.107 3.508-1.543-.236-1.458-.377-3.047-.416-4.732-1.419-.131-2.536-.172-3.232-.18-.149-.003-.29-.003-.42-.003" fill="#dd0332"/><path d="m46.181 11.256c-.131 0-.271 0-.42.002-.692.008-1.811.049-3.228.18-.039 1.622-.183 3.214-.42 4.732 1.143.434 2.319.954 3.509 1.543 2.322-2.933 2.679-4.875 2.731-5.405.018-.181-.082-.457-.158-.565-.188-.276-.471-.444-.778-.464-.005 0-.464-.023-1.236-.023" fill="#dd0332"/><path d="m41.919 17.254c-.475 2.39-1.217 4.48-2.207 6.213-1.033 1.813-2.324 3.188-3.846 4.096 11.03-.6 14.144-4.147 14.468-4.558h.002c.11-.167.164-.353.164-.547 0-.321-.148-.63-.391-.804 0 0-.13-.088-.361-.246l-.002-.003-.005-.003c-.172-.129-.425-.298-.747-.505-.083-.055-.172-.115-.264-.174-.791-.508-2.059-1.277-3.616-2.054-1.076-.543-2.148-1.019-3.195-1.415" fill="#dd0332"/><path d="m9.082 17.254c-3.72 1.41-6.715 3.368-7.839 4.151-.225.165-.352.249-.357.252-.236.172-.386.481-.386.801 0 .194.055.376.163.543.009.01.016.021.02.028.023.024.046.052.072.084.014.017.028.034.045.052.075.083.25.269.528.496.464.399 1.299.998 2.641 1.604 2.778 1.257 6.627 2.054 11.165 2.307-1.503-.903-2.822-2.313-3.844-4.105-.992-1.736-1.734-3.822-2.208-6.213" fill="#dd0332"/><path d="m40.536 28.37c-.563 0-1.401.116-2.668.292-.186.023-.383.051-.588.078-.555.078-1.229.117-2.122.117-.549 0-1.116-.014-1.719-.029l-.052-.002c-.573-.01-1.221-.025-1.872-.025-1.352 0-3.099.057-4.639.484-.076.023-.131.104-.123.16.006.049.1.066.181.066.022 0 .048-.004.071-.004.611-.053 1.203-.08 1.76-.08 2.008 0 3.382.348 4.71.68 1.246.318 2.427.615 4.063.615 1.747 0 3.132-.371 3.701-.996.19-.211.277-.439.256-.682-.046-.464-.194-.674-.959-.674" fill="#dd0332"/><path d="m10.459 28.37c-.762 0-.908.21-.956.675-.023.242.06.471.247.676.558.621 1.981 1.002 3.71 1.002 1.638 0 2.817-.297 4.067-.615 1.325-.332 2.698-.684 4.709-.68.554 0 1.146.027 1.754.08.028 0 .051.004.074.004.081 0 .176-.018.183-.066.007-.057-.049-.137-.129-.16-1.537-.428-3.285-.484-4.636-.484-.649 0-1.298.016-1.869.025l-.055.002c-.603.016-1.169.029-1.717.029-.895 0-1.57-.039-2.123-.117-.21-.027-.413-.059-.604-.082-1.258-.173-2.092-.289-2.655-.289" fill="#dd0332"/></svg>